<svg xmlns="http://www.w3.org/2000/svg" class="octicon octicon-logo-github" role="img" aria-hidden="true" viewBox="0 0 45 16" width="78" height="28" version="1.1"><path d="M 8.64 5.19 H 4.88 c -0.11 0 -0.19 0.08 -0.19 0.17 v 1.84 c 0 0.09 0.08 0.17 0.19 0.17 h 1.47 v 2.3 s -0.33 0.11 -1.25 0.11 c -1.08 0 -2.58 -0.39 -2.58 -3.7 s 1.58 -3.73 3.05 -3.73 c 1.27 0 1.81 0.22 2.17 0.33 c 0.11 0.03 0.2 -0.08 0.2 -0.17 l 0.42 -1.78 c 0 -0.05 -0.02 -0.09 -0.06 -0.14 c -0.14 -0.09 -1.02 -0.58 -3.2 -0.58 C 2.58 0 0 1.06 0 6.2 s 2.95 5.92 5.44 5.92 c 2.06 0 3.31 -0.89 3.31 -0.89 c 0.05 -0.02 0.06 -0.09 0.06 -0.13 V 5.36 c 0 -0.09 -0.08 -0.17 -0.19 -0.17 h 0.02 Z M 27.7 0.44 h -2.13 c -0.09 0 -0.17 0.08 -0.17 0.17 v 4.09 h -3.31 V 0.61 c 0 -0.09 -0.08 -0.17 -0.17 -0.17 h -2.13 c -0.09 0 -0.17 0.08 -0.17 0.17 v 11.11 c 0 0.09 0.09 0.17 0.17 0.17 h 2.13 c 0.09 0 0.17 -0.08 0.17 -0.17 V 6.97 h 3.31 l -0.02 4.75 c 0 0.09 0.08 0.17 0.17 0.17 h 2.13 c 0.09 0 0.17 -0.08 0.17 -0.17 V 0.61 c 0 -0.09 -0.08 -0.17 -0.17 -0.17 h 0.02 Z M 11.19 0.69 c -0.77 0 -1.38 0.61 -1.38 1.38 s 0.61 1.38 1.38 1.38 c 0.75 0 1.36 -0.61 1.36 -1.38 s -0.61 -1.38 -1.36 -1.38 Z m 1.22 3.55 c 0 -0.09 -0.08 -0.17 -0.17 -0.17 H 10.11 c -0.09 0 -0.17 0.09 -0.17 0.2 c 0 0 0 6.17 0 7.34 c 0 0.2 0.13 0.27 0.3 0.27 c 0 0 0.91 0 1.92 0 c 0.2 0 0.25 -0.09 0.25 -0.27 c 0 -0.39 0 -7.36 0 -7.36 v -0.02 Z m 23.52 -0.16 h -2.09 c -0.11 0 -0.17 0.08 -0.17 0.19 v 5.44 s -0.55 0.39 -1.3 0.39 s -0.97 -0.34 -0.97 -1.09 c 0 -0.73 0 -4.75 0 -4.75 c 0 -0.09 -0.08 -0.17 -0.17 -0.17 h -2.14 c -0.09 0 -0.17 0.08 -0.17 0.17 c 0 0 0 2.91 0 5.11 s 1.23 2.75 2.92 2.75 c 1.39 0 2.52 -0.77 2.52 -0.77 s 0.05 0.39 0.08 0.45 c 0.02 0.05 0.09 0.09 0.16 0.09 h 1.34 c 0.11 0 0.17 -0.08 0.17 -0.17 l 0.02 -7.47 c 0 -0.09 -0.08 -0.17 -0.19 -0.17 Z m 5.77 -0.25 c -1.2 0 -2.02 0.53 -2.02 0.53 V 0.59 c 0 -0.09 -0.08 -0.17 -0.17 -0.17 h -2.13 c -0.09 0 -0.17 0.08 -0.17 0.17 l -0.02 11.11 c 0 0.09 0.09 0.17 0.19 0.17 h 1.48 c 0.06 0 0.11 -0.02 0.14 -0.08 c 0.05 -0.06 0.09 -0.52 0.09 -0.52 s 0.88 0.83 2.52 0.83 c 1.94 0 3.05 -0.98 3.05 -4.41 s -1.77 -3.88 -2.97 -3.88 Z m -0.83 6.27 c -0.73 -0.02 -1.22 -0.36 -1.22 -0.36 V 6.22 s 0.48 -0.3 1.08 -0.34 c 0.77 -0.08 1.5 0.16 1.5 1.97 c 0 1.91 -0.33 2.28 -1.36 2.25 Z m -22.33 -0.05 c -0.09 0 -0.33 0.05 -0.58 0.05 c -0.78 0 -1.05 -0.36 -1.05 -0.83 s 0 -3.13 0 -3.13 h 1.59 c 0.09 0 0.16 -0.08 0.16 -0.19 V 4.25 c 0 -0.09 -0.08 -0.17 -0.16 -0.17 h -1.59 V 1.97 c 0 -0.08 -0.05 -0.13 -0.14 -0.13 H 14.61 c -0.09 0 -0.14 0.05 -0.14 0.13 v 2.17 s -1.09 0.27 -1.16 0.28 c -0.08 0.02 -0.13 0.09 -0.13 0.17 v 1.36 c 0 0.11 0.08 0.19 0.17 0.19 h 1.11 s 0 1.44 0 3.28 c 0 2.44 1.7 2.69 2.86 2.69 c 0.53 0 1.17 -0.17 1.27 -0.22 c 0.06 -0.02 0.09 -0.09 0.09 -0.16 v -1.5 c 0 -0.11 -0.08 -0.19 -0.17 -0.19 h 0.02 Z" /></svg>